<svg width="61" height="82" viewBox="0 0 61 82" fill="none" xmlns="http://www.w3.org/2000/svg">
<path d="M46.8326 27.5341C46.8296 26.757 46.7605 26.2038 46.4166 25.6763C46.0781 25.1571 45.5717 24.7829 45.0273 24.6497C43.9132 24.377 42.6822 25.2281 41.9564 26.1923C41.9498 26.2011 41.9425 26.2089 41.9356 26.2173L41.9408 28.6313C41.9415 28.9786 41.6605 29.2608 41.3132 29.2615C41.3127 29.2615 41.3122 29.2615 41.3118 29.2615C40.965 29.2615 40.6837 28.9809 40.6829 28.6339L40.6739 24.4189C40.6715 23.3071 40.0357 22.3426 39.0146 21.9019C38.0314 21.4775 36.9401 21.647 36.1375 22.3404V28.6326C36.1375 28.98 35.8559 29.2615 35.5086 29.2615C35.1612 29.2615 34.8796 28.98 34.8796 28.6326V20.4814C34.8796 19.696 34.4682 18.9742 33.8059 18.5975C33.4702 18.4066 32.4488 17.8257 30.9801 19.8313C30.9225 19.9099 30.8499 19.9705 30.7693 20.0136V28.6325C30.7693 28.9798 30.4877 29.2614 30.1404 29.2614C29.7931 29.2614 29.5115 28.9798 29.5115 28.6325V13.7133V11.5529C29.5115 10.6569 28.9307 10.0992 28.3873 9.87598C27.844 9.65287 27.0389 9.64141 26.4091 10.2787C25.5763 11.1212 25.1177 12.2377 25.1177 13.4229V13.4363L25.1186 13.7166L25.1215 14.7039C25.1215 14.704 25.1215 14.7042 25.1215 14.7043L25.1561 26.0986C25.1591 27.0466 25.1601 28.0105 25.161 28.9425C25.1634 31.1941 25.1658 33.5224 25.1954 35.8098C25.1982 36.0229 25.0928 36.2229 24.9154 36.3412C24.7381 36.4594 24.513 36.4798 24.3173 36.3953C22.3585 35.5495 21.2053 33.6308 20.1879 31.9381L20.1155 31.8176C19.0675 30.0749 17.7717 28.2039 15.6502 28.0633C15.0884 28.0261 14.5696 28.3175 14.2625 28.843C13.9813 29.3243 14.2206 29.8296 14.6344 30.6142C14.7285 30.7926 14.8258 30.9772 14.9126 31.1633C16.2033 33.9321 17.6402 36.693 19.0297 39.3629C19.7217 40.6924 20.4372 42.0671 21.1269 43.428C22.874 46.875 24.6001 49.8695 28.0402 51.6068C32.5931 53.9057 37.9032 53.1647 42.2448 49.6247C43.8167 48.3428 45.0893 46.7246 45.9251 44.945C46.6179 43.4694 46.7168 41.6706 46.8125 39.931C46.8229 39.7423 46.8332 39.5548 46.8442 39.3691C47.0023 36.6969 46.9451 33.9634 46.8897 31.3199C46.864 30.0796 46.8371 28.7973 46.8326 27.5341Z" fill="white"/>
<path d="M21.7564 9.95148C21.8352 11.4598 22.6333 12.832 23.8601 13.6601L23.8595 13.4397C23.8595 13.4394 23.8595 13.4391 23.8595 13.4388L23.8595 13.4226C23.8595 11.9042 24.4471 10.4736 25.5141 9.39434C26.4064 8.49123 27.6903 8.22981 28.8647 8.71223C30.0392 9.19461 30.7689 10.283 30.7689 11.5527V11.9271C31.1152 11.2562 31.2985 10.4985 31.2985 9.69784C31.2985 7.16202 29.3172 5.06806 26.7879 4.93068C25.4426 4.85803 24.1202 5.36599 23.1587 6.32534C22.1973 7.2847 21.6862 8.6064 21.7564 9.95148Z" fill="white"/>
<path d="M13.4036 21.7523V7.24792C13.4036 6.7049 13.8438 6.26465 14.3869 6.26465C14.9299 6.26465 15.3701 6.70486 15.3701 7.24792V21.7523C15.3701 22.2954 14.9299 22.7356 14.3869 22.7356C13.8438 22.7356 13.4036 22.2954 13.4036 21.7523Z" fill="white"/>
<path d="M17.7207 11.1647L14.3868 7.82885L11.0529 11.1647V8.33388L14.3868 5L17.7207 8.33388V11.1647Z" fill="white"/>
<path d="M4.43632 77.168C3.71765 77.168 3.09232 77.0373 2.56032 76.776C2.02832 76.5147 1.61765 76.1507 1.32832 75.684C1.03899 75.2173 0.89432 74.676 0.89432 74.06H2.12632C2.12632 74.4427 2.21499 74.7973 2.39232 75.124C2.56965 75.4413 2.82632 75.698 3.16232 75.894C3.50765 76.0807 3.93232 76.174 4.43632 76.174C5.09899 76.174 5.61232 76.0153 5.97632 75.698C6.34032 75.3807 6.52232 74.984 6.52232 74.508C6.52232 74.116 6.43832 73.8033 6.27032 73.57C6.10232 73.3273 5.87365 73.1313 5.58432 72.982C5.30432 72.8327 4.97765 72.702 4.60432 72.59C4.24032 72.478 3.85765 72.352 3.45632 72.212C2.70032 71.9507 2.14032 71.6287 1.77632 71.246C1.41232 70.854 1.23032 70.3453 1.23032 69.72C1.22099 69.1973 1.34232 68.7353 1.59432 68.334C1.84632 67.9233 2.20099 67.606 2.65832 67.382C3.12499 67.1487 3.67565 67.032 4.31032 67.032C4.93565 67.032 5.47699 67.1487 5.93432 67.382C6.40099 67.6153 6.76032 67.9373 7.01232 68.348C7.27365 68.7587 7.40899 69.2253 7.41832 69.748H6.18632C6.18632 69.4773 6.11632 69.2113 5.97632 68.95C5.83632 68.6793 5.62165 68.46 5.33232 68.292C5.05232 68.124 4.69765 68.04 4.26832 68.04C3.73632 68.0307 3.29765 68.166 2.95232 68.446C2.61632 68.726 2.44832 69.1133 2.44832 69.608C2.44832 70.028 2.56499 70.35 2.79832 70.574C3.04099 70.798 3.37699 70.9847 3.80632 71.134C4.23565 71.274 4.73032 71.4373 5.29032 71.624C5.75699 71.792 6.17699 71.988 6.55032 72.212C6.92365 72.436 7.21299 72.7253 7.41832 73.08C7.63299 73.4347 7.74032 73.8873 7.74032 74.438C7.74032 74.9047 7.61899 75.348 7.37632 75.768C7.13365 76.1787 6.76499 76.5147 6.27032 76.776C5.78499 77.0373 5.17365 77.168 4.43632 77.168ZM10.7381 77L8.70807 70.056H9.88407L11.3541 75.502L12.9781 70.056H14.3081L15.9461 75.502L17.4021 70.056H18.5921L16.5621 77H15.3581L13.6501 71.274L11.9421 77H10.7381ZM20.6068 68.516C20.3734 68.516 20.1774 68.4413 20.0188 68.292C19.8694 68.1333 19.7948 67.9373 19.7948 67.704C19.7948 67.48 19.8694 67.2933 20.0188 67.144C20.1774 66.9947 20.3734 66.92 20.6068 66.92C20.8308 66.92 21.0221 66.9947 21.1808 67.144C21.3394 67.2933 21.4188 67.48 21.4188 67.704C21.4188 67.9373 21.3394 68.1333 21.1808 68.292C21.0221 68.4413 20.8308 68.516 20.6068 68.516ZM20.0188 77V70.056H21.1948V77H20.0188ZM23.2424 80.08V70.056H24.3064L24.4184 71.204C24.6424 70.868 24.9597 70.5647 25.3704 70.294C25.7904 70.0233 26.3224 69.888 26.9664 69.888C27.657 69.888 28.259 70.0467 28.7724 70.364C29.2857 70.6813 29.6824 71.1153 29.9624 71.666C30.2517 72.2167 30.3964 72.842 30.3964 73.542C30.3964 74.242 30.2517 74.8673 29.9624 75.418C29.6824 75.9593 29.281 76.3887 28.7584 76.706C28.245 77.014 27.643 77.168 26.9524 77.168C26.383 77.168 25.8744 77.0513 25.4264 76.818C24.9877 76.5847 24.6517 76.258 24.4184 75.838V80.08H23.2424ZM26.8264 76.146C27.293 76.146 27.7037 76.0387 28.0584 75.824C28.413 75.6 28.693 75.292 28.8984 74.9C29.1037 74.508 29.2064 74.0507 29.2064 73.528C29.2064 73.0053 29.1037 72.548 28.8984 72.156C28.693 71.764 28.413 71.4607 28.0584 71.246C27.7037 71.022 27.293 70.91 26.8264 70.91C26.3597 70.91 25.949 71.022 25.5944 71.246C25.2397 71.4607 24.9597 71.764 24.7544 72.156C24.549 72.548 24.4464 73.0053 24.4464 73.528C24.4464 74.0507 24.549 74.508 24.7544 74.9C24.9597 75.292 25.2397 75.6 25.5944 75.824C25.949 76.0387 26.3597 76.146 26.8264 76.146ZM35.1554 77.168C34.4927 77.168 33.9047 77.0187 33.3914 76.72C32.878 76.412 32.472 75.9873 32.1734 75.446C31.884 74.9047 31.7394 74.2653 31.7394 73.528C31.7394 72.8 31.884 72.1653 32.1734 71.624C32.4627 71.0733 32.864 70.6487 33.3774 70.35C33.9 70.042 34.502 69.888 35.1834 69.888C35.8554 69.888 36.434 70.042 36.9194 70.35C37.414 70.6487 37.792 71.0453 38.0534 71.54C38.3147 72.0347 38.4454 72.5667 38.4454 73.136C38.4454 73.2387 38.4407 73.3413 38.4314 73.444C38.4314 73.5467 38.4314 73.6633 38.4314 73.794H32.9014C32.9294 74.326 33.0507 74.7693 33.2654 75.124C33.4894 75.4693 33.7647 75.7307 34.0914 75.908C34.4274 76.0853 34.782 76.174 35.1554 76.174C35.6407 76.174 36.0467 76.062 36.3734 75.838C36.7 75.614 36.938 75.3107 37.0874 74.928H38.2494C38.0627 75.572 37.7034 76.1087 37.1714 76.538C36.6487 76.958 35.9767 77.168 35.1554 77.168ZM35.1554 70.882C34.5954 70.882 34.096 71.0547 33.6574 71.4C33.228 71.736 32.9807 72.2307 32.9154 72.884H37.2834C37.2554 72.2587 37.0407 71.7687 36.6394 71.414C36.238 71.0593 35.7434 70.882 35.1554 70.882ZM47.3212 77.168C46.6492 77.168 46.0378 77.0373 45.4872 76.776C44.9458 76.5053 44.5118 76.09 44.1852 75.53C43.8585 74.97 43.6952 74.256 43.6952 73.388V67.2H44.8712V73.402C44.8712 74.354 45.0998 75.0447 45.5572 75.474C46.0145 75.9033 46.6118 76.118 47.3492 76.118C48.0865 76.118 48.6792 75.9033 49.1272 75.474C49.5752 75.0447 49.7992 74.354 49.7992 73.402V67.2H50.9752V73.388C50.9752 74.256 50.8118 74.97 50.4852 75.53C50.1585 76.09 49.7198 76.5053 49.1692 76.776C48.6185 77.0373 48.0025 77.168 47.3212 77.168ZM52.8967 80.08V70.056H53.9607L54.0727 71.204C54.2967 70.868 54.614 70.5647 55.0247 70.294C55.4447 70.0233 55.9767 69.888 56.6207 69.888C57.3113 69.888 57.9133 70.0467 58.4267 70.364C58.94 70.6813 59.3367 71.1153 59.6167 71.666C59.906 72.2167 60.0507 72.842 60.0507 73.542C60.0507 74.242 59.906 74.8673 59.6167 75.418C59.3367 75.9593 58.9353 76.3887 58.4127 76.706C57.8993 77.014 57.2973 77.168 56.6067 77.168C56.0373 77.168 55.5287 77.0513 55.0807 76.818C54.642 76.5847 54.306 76.258 54.0727 75.838V80.08H52.8967ZM56.4807 76.146C56.9473 76.146 57.358 76.0387 57.7127 75.824C58.0673 75.6 58.3473 75.292 58.5527 74.9C58.758 74.508 58.8607 74.0507 58.8607 73.528C58.8607 73.0053 58.758 72.548 58.5527 72.156C58.3473 71.764 58.0673 71.4607 57.7127 71.246C57.358 71.022 56.9473 70.91 56.4807 70.91C56.014 70.91 55.6033 71.022 55.2487 71.246C54.894 71.4607 54.614 71.764 54.4087 72.156C54.2033 72.548 54.1007 73.0053 54.1007 73.528C54.1007 74.0507 54.2033 74.508 54.4087 74.9C54.614 75.292 54.894 75.6 55.2487 75.824C55.6033 76.0387 56.014 76.146 56.4807 76.146Z" fill="white"/>
</svg>
